<mxfile host="app.diagrams.net" agent="Mozilla/5.0 (Windows NT 10.0; Win64; x64) AppleWebKit/537.36 (KHTML, like Gecko) Chrome/135.0.0.0 Safari/537.36" version="26.2.13" pages="2">
  <diagram name="nạp tiền" id="2YBvvXClWsGukQMizWep">
    <mxGraphModel dx="1414" dy="738" grid="1" gridSize="10" guides="1" tooltips="1" connect="1" arrows="1" fold="1" page="1" pageScale="1" pageWidth="850" pageHeight="1100" math="0" shadow="0">
      <root>
        <mxCell id="0" />
        <mxCell id="1" parent="0" />
        <mxCell id="vFDk0GC0d17mMyUoq0IO-3" value="Cập nhật kết quả_View" style="shape=umlLifeline;perimeter=lifelinePerimeter;whiteSpace=wrap;html=1;container=1;dropTarget=0;collapsible=0;recursiveResize=0;outlineConnect=0;portConstraint=eastwest;newEdgeStyle={&quot;curved&quot;:0,&quot;rounded&quot;:0};" parent="1" vertex="1">
          <mxGeometry x="252" y="80" width="100" height="280" as="geometry" />
        </mxCell>
        <mxCell id="vFDk0GC0d17mMyUoq0IO-10" value="" style="html=1;points=[[0,0,0,0,5],[0,1,0,0,-5],[1,0,0,0,5],[1,1,0,0,-5]];perimeter=orthogonalPerimeter;outlineConnect=0;targetShapes=umlLifeline;portConstraint=eastwest;newEdgeStyle={&quot;curved&quot;:0,&quot;rounded&quot;:0};" parent="vFDk0GC0d17mMyUoq0IO-3" vertex="1">
          <mxGeometry x="45" y="70" width="10" height="110" as="geometry" />
        </mxCell>
        <mxCell id="vFDk0GC0d17mMyUoq0IO-5" value="TranDau_Update-Model" style="shape=umlLifeline;perimeter=lifelinePerimeter;whiteSpace=wrap;html=1;container=1;dropTarget=0;collapsible=0;recursiveResize=0;outlineConnect=0;portConstraint=eastwest;newEdgeStyle={&quot;curved&quot;:0,&quot;rounded&quot;:0};" parent="1" vertex="1">
          <mxGeometry x="669" y="80" width="120" height="280" as="geometry" />
        </mxCell>
        <mxCell id="GY7iQceXOe3kTuHFjohI-7" value="" style="html=1;points=[[0,0,0,0,5],[0,1,0,0,-5],[1,0,0,0,5],[1,1,0,0,-5]];perimeter=orthogonalPerimeter;outlineConnect=0;targetShapes=umlLifeline;portConstraint=eastwest;newEdgeStyle={&quot;curved&quot;:0,&quot;rounded&quot;:0};" parent="vFDk0GC0d17mMyUoq0IO-5" vertex="1">
          <mxGeometry x="55" y="116" width="10" height="44" as="geometry" />
        </mxCell>
        <mxCell id="vFDk0GC0d17mMyUoq0IO-6" value="" style="shape=umlLifeline;perimeter=lifelinePerimeter;whiteSpace=wrap;html=1;container=1;dropTarget=0;collapsible=0;recursiveResize=0;outlineConnect=0;portConstraint=eastwest;newEdgeStyle={&quot;curved&quot;:0,&quot;rounded&quot;:0};participant=umlActor;" parent="1" vertex="1">
          <mxGeometry x="39" y="60" width="20" height="300" as="geometry" />
        </mxCell>
        <mxCell id="vFDk0GC0d17mMyUoq0IO-9" value="" style="html=1;points=[[0,0,0,0,5],[0,1,0,0,-5],[1,0,0,0,5],[1,1,0,0,-5]];perimeter=orthogonalPerimeter;outlineConnect=0;targetShapes=umlLifeline;portConstraint=eastwest;newEdgeStyle={&quot;curved&quot;:0,&quot;rounded&quot;:0};" parent="vFDk0GC0d17mMyUoq0IO-6" vertex="1">
          <mxGeometry x="5" y="70" width="10" height="220" as="geometry" />
        </mxCell>
        <mxCell id="vFDk0GC0d17mMyUoq0IO-13" value="sendResult(matchID,result)" style="html=1;verticalAlign=bottom;endArrow=block;curved=0;rounded=0;" parent="1" target="vFDk0GC0d17mMyUoq0IO-3" edge="1">
          <mxGeometry width="80" relative="1" as="geometry">
            <mxPoint x="55" y="150" as="sourcePoint" />
            <mxPoint x="272.5" y="150" as="targetPoint" />
          </mxGeometry>
        </mxCell>
        <mxCell id="vFDk0GC0d17mMyUoq0IO-26" value="alt" style="shape=umlFrame;whiteSpace=wrap;html=1;pointerEvents=0;" parent="1" vertex="1">
          <mxGeometry y="268" width="790" height="82" as="geometry" />
        </mxCell>
        <mxCell id="vFDk0GC0d17mMyUoq0IO-34" value="systemError" style="html=1;verticalAlign=bottom;endArrow=open;dashed=1;endSize=8;curved=0;rounded=0;entryX=1;entryY=0;entryDx=0;entryDy=5;entryPerimeter=0;" parent="1" target="GY7iQceXOe3kTuHFjohI-16" edge="1">
          <mxGeometry relative="1" as="geometry">
            <mxPoint x="724" y="308" as="sourcePoint" />
            <mxPoint x="524" y="307" as="targetPoint" />
          </mxGeometry>
        </mxCell>
        <mxCell id="vFDk0GC0d17mMyUoq0IO-37" value="lỗi hệ thống khi xử lý cập nhật" style="text;align=center;fontStyle=1;verticalAlign=middle;spacingLeft=3;spacingRight=3;strokeColor=none;rotatable=0;points=[[0,0.5],[1,0.5]];portConstraint=eastwest;html=1;" parent="1" vertex="1">
          <mxGeometry x="450" y="268" width="80" height="26" as="geometry" />
        </mxCell>
        <mxCell id="GY7iQceXOe3kTuHFjohI-4" value="updateScore()" style="html=1;align=left;spacingLeft=2;endArrow=block;rounded=0;edgeStyle=orthogonalEdgeStyle;curved=0;rounded=0;" parent="1" edge="1">
          <mxGeometry relative="1" as="geometry">
            <mxPoint x="734" y="208" as="sourcePoint" />
            <Array as="points">
              <mxPoint x="749" y="208" />
              <mxPoint x="749" y="228" />
              <mxPoint x="734" y="228" />
            </Array>
            <mxPoint x="734" y="228" as="targetPoint" />
          </mxGeometry>
        </mxCell>
        <mxCell id="GY7iQceXOe3kTuHFjohI-5" value="requestUpdate()" style="html=1;verticalAlign=bottom;endArrow=block;curved=0;rounded=0;entryX=0.5;entryY=0;entryDx=0;entryDy=0;entryPerimeter=0;" parent="1" edge="1">
          <mxGeometry width="80" relative="1" as="geometry">
            <mxPoint x="308" y="170" as="sourcePoint" />
            <mxPoint x="498" y="170" as="targetPoint" />
          </mxGeometry>
        </mxCell>
        <mxCell id="GY7iQceXOe3kTuHFjohI-10" value="success" style="html=1;verticalAlign=bottom;endArrow=open;dashed=1;endSize=8;curved=0;rounded=0;" parent="1" edge="1">
          <mxGeometry relative="1" as="geometry">
            <mxPoint x="719" y="236" as="sourcePoint" />
            <mxPoint x="505" y="236" as="targetPoint" />
          </mxGeometry>
        </mxCell>
        <mxCell id="GY7iQceXOe3kTuHFjohI-15" value="" style="html=1;points=[[0,0,0,0,5],[0,1,0,0,-5],[1,0,0,0,5],[1,1,0,0,-5]];perimeter=orthogonalPerimeter;outlineConnect=0;targetShapes=umlLifeline;portConstraint=eastwest;newEdgeStyle={&quot;curved&quot;:0,&quot;rounded&quot;:0};" parent="1" vertex="1">
          <mxGeometry x="724" y="301" width="10" height="16" as="geometry" />
        </mxCell>
        <mxCell id="GY7iQceXOe3kTuHFjohI-18" value="Failed" style="html=1;verticalAlign=bottom;endArrow=open;dashed=1;endSize=8;curved=0;rounded=0;" parent="1" edge="1">
          <mxGeometry relative="1" as="geometry">
            <mxPoint x="297" y="326" as="sourcePoint" />
            <mxPoint x="54" y="326" as="targetPoint" />
          </mxGeometry>
        </mxCell>
        <mxCell id="GY7iQceXOe3kTuHFjohI-24" value="success" style="html=1;verticalAlign=bottom;endArrow=open;dashed=1;endSize=8;curved=0;rounded=0;" parent="1" edge="1">
          <mxGeometry relative="1" as="geometry">
            <mxPoint x="301.5" y="255" as="sourcePoint" />
            <mxPoint x="52" y="255" as="targetPoint" />
          </mxGeometry>
        </mxCell>
        <mxCell id="MhI-1YEO5p84lBPdAXA5-1" value="Trandau_Update controller" style="shape=umlLifeline;perimeter=lifelinePerimeter;whiteSpace=wrap;html=1;container=1;dropTarget=0;collapsible=0;recursiveResize=0;outlineConnect=0;portConstraint=eastwest;newEdgeStyle={&quot;curved&quot;:0,&quot;rounded&quot;:0};" vertex="1" parent="1">
          <mxGeometry x="450" y="80" width="100" height="280" as="geometry" />
        </mxCell>
        <mxCell id="MhI-1YEO5p84lBPdAXA5-2" value="" style="html=1;points=[[0,0,0,0,5],[0,1,0,0,-5],[1,0,0,0,5],[1,1,0,0,-5]];perimeter=orthogonalPerimeter;outlineConnect=0;targetShapes=umlLifeline;portConstraint=eastwest;newEdgeStyle={&quot;curved&quot;:0,&quot;rounded&quot;:0};" vertex="1" parent="MhI-1YEO5p84lBPdAXA5-1">
          <mxGeometry x="45" y="90" width="10" height="80" as="geometry" />
        </mxCell>
        <mxCell id="GY7iQceXOe3kTuHFjohI-16" value="" style="html=1;points=[[0,0,0,0,5],[0,1,0,0,-5],[1,0,0,0,5],[1,1,0,0,-5]];perimeter=orthogonalPerimeter;outlineConnect=0;targetShapes=umlLifeline;portConstraint=eastwest;newEdgeStyle={&quot;curved&quot;:0,&quot;rounded&quot;:0};" parent="MhI-1YEO5p84lBPdAXA5-1" vertex="1">
          <mxGeometry x="45" y="221" width="10" height="20" as="geometry" />
        </mxCell>
        <mxCell id="MhI-1YEO5p84lBPdAXA5-3" value="provider" style="text;html=1;align=center;verticalAlign=middle;whiteSpace=wrap;rounded=0;" vertex="1" parent="1">
          <mxGeometry x="19" y="100" width="60" height="30" as="geometry" />
        </mxCell>
        <mxCell id="MhI-1YEO5p84lBPdAXA5-5" value="queryUpdateResult()" style="html=1;verticalAlign=bottom;endArrow=block;curved=0;rounded=0;" edge="1" parent="1">
          <mxGeometry width="80" relative="1" as="geometry">
            <mxPoint x="506" y="205" as="sourcePoint" />
            <mxPoint x="724.5" y="205" as="targetPoint" />
          </mxGeometry>
        </mxCell>
        <mxCell id="MhI-1YEO5p84lBPdAXA5-6" value="success" style="html=1;verticalAlign=bottom;endArrow=open;dashed=1;endSize=8;curved=0;rounded=0;" edge="1" parent="1">
          <mxGeometry relative="1" as="geometry">
            <mxPoint x="494" y="242" as="sourcePoint" />
            <mxPoint x="307" y="244" as="targetPoint" />
          </mxGeometry>
        </mxCell>
        <mxCell id="MhI-1YEO5p84lBPdAXA5-8" value="" style="html=1;verticalAlign=bottom;endArrow=open;dashed=1;endSize=8;curved=0;rounded=0;" edge="1" parent="1">
          <mxGeometry relative="1" as="geometry">
            <mxPoint x="499.5" y="317" as="sourcePoint" />
            <mxPoint x="307" y="317" as="targetPoint" />
          </mxGeometry>
        </mxCell>
        <mxCell id="MhI-1YEO5p84lBPdAXA5-9" value="updateFailed" style="edgeLabel;html=1;align=center;verticalAlign=middle;resizable=0;points=[];fontSize=12;" vertex="1" connectable="0" parent="MhI-1YEO5p84lBPdAXA5-8">
          <mxGeometry x="0.0374" y="-2" relative="1" as="geometry">
            <mxPoint as="offset" />
          </mxGeometry>
        </mxCell>
        <mxCell id="MhI-1YEO5p84lBPdAXA5-7" value="" style="html=1;points=[[0,0,0,0,5],[0,1,0,0,-5],[1,0,0,0,5],[1,1,0,0,-5]];perimeter=orthogonalPerimeter;outlineConnect=0;targetShapes=umlLifeline;portConstraint=eastwest;newEdgeStyle={&quot;curved&quot;:0,&quot;rounded&quot;:0};" vertex="1" parent="1">
          <mxGeometry x="297" y="311" width="10" height="20" as="geometry" />
        </mxCell>
        <mxCell id="MhI-1YEO5p84lBPdAXA5-10" value="checkData()" style="html=1;align=left;spacingLeft=2;endArrow=block;rounded=0;edgeStyle=orthogonalEdgeStyle;curved=0;rounded=0;" edge="1" parent="1">
          <mxGeometry relative="1" as="geometry">
            <mxPoint x="506" y="175" as="sourcePoint" />
            <Array as="points">
              <mxPoint x="521" y="175" />
              <mxPoint x="521" y="195" />
              <mxPoint x="506" y="195" />
            </Array>
            <mxPoint x="506" y="195" as="targetPoint" />
          </mxGeometry>
        </mxCell>
      </root>
    </mxGraphModel>
  </diagram>
  <diagram id="HiHAszpPCOSxU3o_SXAR" name="Page-2">
    <mxGraphModel grid="1" page="1" gridSize="10" guides="1" tooltips="1" connect="1" arrows="1" fold="1" pageScale="1" pageWidth="827" pageHeight="1169" math="0" shadow="0">
      <root>
        <mxCell id="0" />
        <mxCell id="1" parent="0" />
      </root>
    </mxGraphModel>
  </diagram>
</mxfile>
